<?xml version="1.0" encoding="utf-8"?>
<!-- Generator: Adobe Illustrator 27.3.1, SVG Export Plug-In . SVG Version: 6.00 Build 0)  -->
<svg version="1.1" id="Layer_1" xmlns="http://www.w3.org/2000/svg" xmlns:xlink="http://www.w3.org/1999/xlink" x="0px" y="0px"
	 viewBox="0 0 2088 2088" style="enable-background:new 0 0 2088 2088;" xml:space="preserve">
<style type="text/css">
	.st0{fill-rule:evenodd;clip-rule:evenodd;fill:#943808;}
	.st1{fill-rule:evenodd;clip-rule:evenodd;fill:#F26E21;}
	.st2{fill-rule:evenodd;clip-rule:evenodd;fill:#FFFFFF;}
	.st3{fill:#943B15;}
	.st4{font-family:'CenturyGothic-Bold';}
	.st5{font-size:379.1627px;}
	.st6{letter-spacing:15.9;}
</style>
<g>
	<g>
		<path class="st0" d="M464.2,1515.4V1096C236.4,1145.3,20.7,961.1,20.7,711.8C20.7,495.2,186,319.7,390,319.7
			c74.9,0,144.5,23.7,202.7,64.3c60.9-205.1,241.4-353.9,454.8-353.9s393.9,148.8,454.8,353.9c58.2-40.7,127.9-64.3,202.7-64.3
			c203.9,0,369.3,175.6,369.3,392.1c0,249.4-215.7,433.6-443.5,384.2v419.4c-201.4,0-338.4,9.3-518.1-119.5
			c74.6-92.6,130.8-202.2,162.7-320c14.1-62.9,25.5-59.2,69.8-85.4c77.2-45.6,114.6-160.7,108.6-268.8
			c-6-108.3-55.9-209.8-134.2-228.5c-79.4-9.2-148.9,71.9-183.7,171.8c-35.1,100.7-40.2,220,10.1,289.3
			c32.1,44.2,37.4,44.1,21.1,102.5c-25.9,97-75.4,189.1-139.7,267c-5-5-9.9-10-14.8-15.2c-74.1-78.5-145.2-190.1-168.1-299.2
			c-6.9-35-6.6-49.8,12.1-64.8c38.2-24.7,42.5-63.7,38.1-106.8c-2.8-27.6-4.5-55.2-6.1-82.9c-1.6-40.9-2.9-81.9-2.2-123
			c0.7-41.2,3.5-82.7,7-124.3c0-0.2,0-0.3,0-0.4c0.9-9.5-7-16-17.6-14.4c-10.7,1.5-20.1,10.5-21.1,20l0,0
			c-3.7,41.7-6.6,83.2-7.3,124.5c-0.7,41.2,0.8,82.2,2.6,123.1c0.5,9.5-7.1,18.3-16.8,19.7c-9.8,1.4-18.2-5.1-18.8-14.6
			c-1.9-40.9-3.4-82-2.8-123c0.7-41.3,3.7-82.8,7.5-124.5c0-0.1,0.1-0.1,0.1-0.1c1-9.5-6.8-16-17.5-14.5
			c-10.7,1.5-20.2,10.5-21.3,20.1l0,0c-4,41.8-7.1,83.3-7.7,124.6c-0.6,41.1,1.1,82.1,3.1,123c0.5,8.8-5.9,17.1-14.7,19.3
			c-9,0.4-16.4-5.9-17-14.8c-2.1-40.9-3.9-81.8-3.3-123c0.6-41.3,3.8-82.9,8-124.6l0,0c1.1-9.6-6.6-16-17.3-14.5
			c-10.7,1.5-20.3,10.5-21.4,20.1c0,0,0,0.1,0,0.1c-4.3,41.7-7.7,83.3-8.2,124.6c-0.5,41.1,1.4,82.1,3.6,123
			c0.7,9.4-6.7,18.2-16.5,19.7c-9.8,1.4-18.4-5.1-19-14.6c-2.4-40.8-4.4-81.8-3.9-122.9c0.5-41.4,4.1-82.9,8.5-124.7l0,0
			c1.2-9.6-6.5-16-17.1-14.5c-10.7,1.5-20.3,10.5-21.6,20.1c0,0.1-0.1,0.2-0.1,0.4c-4.5,41.7-8.2,83.3-8.7,124.5
			c-0.5,41,1.7,82,4.2,122.7c2.3,27.6,4.7,55.1,8.1,82.6c5.3,43.1,20.5,79.2,64.4,92.1c22.5,9,27.6,23,33.1,58.2
			c21.1,129,111.9,273.6,198.9,365.6c4.6,4.8,9.2,9.6,13.9,14.3C817.1,1522.9,670.2,1515.4,464.2,1515.4"/>
		<path class="st1" d="M507.4,1469.6c49.9,0.2,100,0.3,149.6-2.9c51.4-3.3,103.3-10.4,152.1-28.5c26.8-10,51.6-22.8,74.8-38.8
			c-86-98.4-168.7-238.1-189.6-366.8c-0.8-4.7-2.6-16.8-4.7-22.6c-58.8-18.5-85.6-67.7-93.1-129.6c-3.4-28.1-5.9-56.3-8.3-84.5
			l-0.1-0.5l0-0.5c-2.6-42.1-4.8-84.1-4.3-126.3c0.5-43.2,4.3-86.3,9-129.2l0.3-2.5l0.3-1.2c5-30.1,30.2-53,58.2-57.1
			c13.6-2,26.7,0.8,37.5,7c10.2-9.4,23.1-15.7,36.6-17.7c12.7-1.8,25,0.5,35.5,5.9c9.9-8.5,22-14.3,34.8-16.1
			c13.5-1.9,26.5,0.8,37.4,7c10.2-9.4,23-15.7,36.5-17.7c36.6-5.3,70.3,24,66.5,64.5l0,0.3c-3.3,40.1-6.1,80.3-6.8,120.6
			c-0.6,40,0.6,79.9,2.2,119.8c1.6,26.8,3.2,53.7,6,80.4c6.1,60-4.7,113.4-54.2,148c0.5,6,2.4,14.7,3.2,18.7
			c18.8,91.2,76.3,185.4,137.5,255.7c45.2-63.2,80.6-135.2,101.3-211.3c1.7-6.1,7.1-25,7.1-32.1c-3.2-6.9-16.7-23.8-20.9-29.6
			c-65.7-90.5-51.7-232.1-16.4-333.2c30.1-86.6,93.2-182.9,184.8-199.9c14.6-2.7,29.4-3.2,44-1.5l2.4,0.3l2.4,0.6
			c110.8,26.5,161.8,162.2,167.8,270.6c6.3,113.8-31.3,252.9-130.7,311.6c-8.2,4.8-31.3,16-37.5,22.1c-4.7,4.7-10,27.7-11.4,33.9
			l-0.2,1l-0.3,1c-29,106.9-76.9,207.5-140.2,296c138.2,85.6,254.1,85.7,410.7,85.1v-429.8l51.9,11.2
			c202,43.8,391.6-120,391.6-339.2c0-191.2-146-346.2-326-346.2c-63.8,0-125.7,19.5-179,56.8l-47.8,33.4l-17.2-57.9
			C1404.3,206.6,1236.7,76,1047.5,76S690.7,206.5,633.9,397.8l-17.2,57.9l-47.8-33.4c-53.3-37.3-115.2-56.8-179-56.8
			c-180.1,0-326,155-326,346.2c0,219.2,189.6,383,391.6,339.2l51.9-11.2L507.4,1469.6L507.4,1469.6z"/>
		<path class="st0" d="M1260,543.6c-120.2,64.6-172.8,309.3-96,374C1142.5,886.6,1126.2,648,1260,543.6"/>
		<path class="st0" d="M647.7,847.8c0,0-8.6,95.9,65.7,106.9C713.4,954.6,661.5,938.1,647.7,847.8"/>
		<path class="st2" d="M524.6,428.3c0,0-155.5-60.7-292.7,24.3s-141.8,272-130.3,320.5C101.5,773.1,117.6,396.7,524.6,428.3"/>
		<path class="st2" d="M662.1,455.9c60.8-209.4,283.3-332.2,408.1-341.5C997.5,101,695.9,152.5,662.1,455.9"/>
		<path class="st2" d="M1505.8,550.7c-4.2-32.5-14.6-65.2-14.6-65.2s206.8-196.5,426.7-2.5C1917.9,482.9,1669.8,340.5,1505.8,550.7"
			/>
	</g>
	<text transform="matrix(0.9417 0 0 1 251.6953 1971.7334)" class="st3 st4 st5 st6">SQUISITO</text>
</g>
</svg>
